<svg xmlns="http://www.w3.org/2000/svg" width="100" height="97.534" viewBox="0 0 100 97.534">
  <path id="iconmonstr-github-1" d="M50,0A50.005,50.005,0,0,0,34.2,97.446c2.5.463,3.3-1.087,3.3-2.4V85.733c-13.908,3.025-16.8-5.9-16.8-5.9-2.275-5.779-5.554-7.317-5.554-7.317-4.537-3.1.346-3.037.346-3.037,5.021.35,7.662,5.154,7.662,5.154,4.458,7.642,11.7,5.433,14.55,4.154A10.608,10.608,0,0,1,40.875,72.1C29.771,70.833,18.1,66.546,18.1,47.392a19.352,19.352,0,0,1,5.15-13.421c-.517-1.263-2.229-6.35.488-13.233,0,0,4.2-1.342,13.754,5.125a47.392,47.392,0,0,1,25.037,0c9.546-6.467,13.738-5.125,13.738-5.125,2.721,6.887,1.008,11.975.492,13.233A19.3,19.3,0,0,1,81.9,47.392c0,19.2-11.7,23.433-22.829,24.671,1.792,1.55,3.429,4.592,3.429,9.258V95.042c0,1.329.8,2.892,3.337,2.4A50.009,50.009,0,0,0,50,0Z" fill="#d33f49"/>
</svg>
