<svg xmlns="http://www.w3.org/2000/svg" width="100" height="100" viewBox="0 0 100 100">
  <path id="iconmonstr-instagram-11" d="M50,9.012c13.35,0,14.933.05,20.208.292,13.55.617,19.879,7.046,20.5,20.5.242,5.271.288,6.854.288,20.2s-.05,14.933-.288,20.2c-.621,13.438-6.933,19.879-20.5,20.5C64.933,90.946,63.358,91,50,91s-14.933-.05-20.2-.292C16.212,90.083,9.917,83.625,9.3,70.2c-.242-5.271-.292-6.85-.292-20.2s.054-14.929.292-20.2C9.921,16.35,16.233,9.917,29.8,9.3c5.275-.238,6.854-.288,20.2-.288ZM50,0C36.421,0,34.721.058,29.387.3,11.229,1.133,1.137,11.208.3,29.383.058,34.721,0,36.421,0,50S.058,65.283.3,70.617C1.133,88.775,11.208,98.867,29.383,99.7c5.337.242,7.037.3,20.617.3s15.283-.058,20.617-.3C88.758,98.867,98.875,88.792,99.7,70.617c.246-5.333.3-7.037.3-20.617s-.058-15.279-.3-20.613C98.883,11.246,88.8,1.137,70.621.3,65.283.058,63.579,0,50,0Zm0,24.325A25.677,25.677,0,1,0,75.675,50,25.676,25.676,0,0,0,50,24.325Zm0,42.342A16.667,16.667,0,1,1,66.667,50,16.665,16.665,0,0,1,50,66.667ZM76.692,17.312a6,6,0,1,0,6,6A6,6,0,0,0,76.692,17.312Z" fill="#d33f49"/>
</svg>
