<svg xmlns="http://www.w3.org/2000/svg" width="100" height="100" viewBox="0 0 100 100">
  <path id="iconmonstr-linkedin-3" d="M79.167,0H20.833A20.836,20.836,0,0,0,0,20.833V79.167A20.836,20.836,0,0,0,20.833,100H79.167A20.833,20.833,0,0,0,100,79.167V20.833A20.833,20.833,0,0,0,79.167,0ZM33.333,79.167h-12.5V33.333h12.5ZM27.083,28.05a7.35,7.35,0,1,1,7.292-7.35A7.323,7.323,0,0,1,27.083,28.05Zm56.25,51.117h-12.5V55.817c0-14.033-16.667-12.971-16.667,0v23.35h-12.5V33.333h12.5v7.354C59.983,29.913,83.333,29.117,83.333,51Z" fill="#d33f49"/>
</svg>
